<mxfile host="Electron" agent="Mozilla/5.0 (Macintosh; Intel Mac OS X 10_15_7) AppleWebKit/537.36 (KHTML, like Gecko) draw.io/24.7.17 Chrome/128.0.6613.36 Electron/32.0.1 Safari/537.36" version="24.7.17">
  <diagram id="6a731a19-8d31-9384-78a2-239565b7b9f0" name="Page-1">
    <mxGraphModel dx="2622" dy="1545" grid="1" gridSize="10" guides="1" tooltips="1" connect="1" arrows="1" fold="1" page="1" pageScale="1" pageWidth="1169" pageHeight="827" background="none" math="0" shadow="0">
      <root>
        <mxCell id="0" />
        <mxCell id="1" parent="0" />
        <mxCell id="CXtcnc7tY5BcHgQPK8wa-107" value="" style="group;fontSize=24;" vertex="1" connectable="0" parent="1">
          <mxGeometry x="-1120" y="130" width="1061" height="1250" as="geometry" />
        </mxCell>
        <mxCell id="CXtcnc7tY5BcHgQPK8wa-103" value="" style="group;" vertex="1" connectable="0" parent="CXtcnc7tY5BcHgQPK8wa-107">
          <mxGeometry x="81" y="150" width="980" height="1080" as="geometry" />
        </mxCell>
        <mxCell id="2" value="Incidental Thyroid Nodules" style="shape=mxgraph.flowchart.terminator;strokeWidth=2;gradientDirection=north;fontStyle=0;html=1;fillColor=#fff2cc;strokeColor=#d6b656;fontSize=20;" parent="CXtcnc7tY5BcHgQPK8wa-103" vertex="1">
          <mxGeometry x="509" width="310" height="90" as="geometry" />
        </mxCell>
        <UserObject label="&lt;font style=&quot;font-size: 17px;&quot;&gt;What is the size ?&lt;/font&gt;&lt;div style=&quot;font-size: 17px;&quot;&gt;&lt;hr&gt;&lt;div&gt;&lt;/div&gt;&lt;div&gt;&lt;font style=&quot;font-size: 17px;&quot;&gt;In MNG, look at size of each individual nodule.&lt;/font&gt;&lt;/div&gt;&lt;/div&gt;" tooltip="Factors to be considered:&#xa;=&gt;Size of nodule&#xa;=&gt;Age of patient (&lt; or &gt; 35 Yrs)&#xa;=&gt;Imaging features" id="3">
          <mxCell style="shape=mxgraph.flowchart.data;strokeWidth=2;gradientDirection=north;fontStyle=0;html=1;fillColor=#d5e8d4;strokeColor=#82b366;" parent="CXtcnc7tY5BcHgQPK8wa-103" vertex="1">
            <mxGeometry x="409" y="120" width="526" height="130" as="geometry" />
          </mxCell>
        </UserObject>
        <mxCell id="CXtcnc7tY5BcHgQPK8wa-55" value="Size &amp;gt; 15mm ?" style="rhombus;whiteSpace=wrap;html=1;strokeWidth=2;gradientDirection=north;fontStyle=0;hachureGap=4;fontFamily=Architects Daughter;fontSource=https%3A%2F%2Ffonts.googleapis.com%2Fcss%3Ffamily%3DArchitects%2BDaughter;fillColor=#d5e8d4;strokeColor=#82b366;rounded=0;shadow=1;fontSize=19;" vertex="1" parent="CXtcnc7tY5BcHgQPK8wa-103">
          <mxGeometry x="602.5" y="270" width="151" height="140" as="geometry" />
        </mxCell>
        <mxCell id="CXtcnc7tY5BcHgQPK8wa-61" value="Recommend further workup with USG" style="whiteSpace=wrap;html=1;fontFamily=Architects Daughter;strokeWidth=2;gradientDirection=north;fontStyle=1;hachureGap=4;fontSource=https%3A%2F%2Ffonts.googleapis.com%2Fcss%3Ffamily%3DArchitects%2BDaughter;fillColor=#fff2cc;strokeColor=#d6b656;shadow=1;comic=1;fontSize=19;" vertex="1" parent="CXtcnc7tY5BcHgQPK8wa-103">
          <mxGeometry x="-111" y="700" width="260" height="152.5" as="geometry" />
        </mxCell>
        <mxCell id="CXtcnc7tY5BcHgQPK8wa-65" value="Size &amp;gt; 10 mm?" style="rhombus;whiteSpace=wrap;html=1;fontFamily=Architects Daughter;fillColor=#d5e8d4;strokeColor=#82b366;strokeWidth=2;gradientDirection=north;fontStyle=0;hachureGap=4;fontSource=https%3A%2F%2Ffonts.googleapis.com%2Fcss%3Ffamily%3DArchitects%2BDaughter;rounded=0;shadow=1;fontSize=19;" vertex="1" parent="CXtcnc7tY5BcHgQPK8wa-103">
          <mxGeometry x="596" y="470" width="164" height="140" as="geometry" />
        </mxCell>
        <mxCell id="CXtcnc7tY5BcHgQPK8wa-69" value="Age &amp;lt;35 Years" style="rhombus;whiteSpace=wrap;html=1;fontFamily=Architects Daughter;fillColor=#d5e8d4;strokeColor=#82b366;strokeWidth=2;gradientDirection=north;fontStyle=0;hachureGap=4;fontSource=https%3A%2F%2Ffonts.googleapis.com%2Fcss%3Ffamily%3DArchitects%2BDaughter;rounded=0;shadow=1;fontSize=19;" vertex="1" parent="CXtcnc7tY5BcHgQPK8wa-103">
          <mxGeometry x="280" y="452.5" width="204" height="175" as="geometry" />
        </mxCell>
        <mxCell id="CXtcnc7tY5BcHgQPK8wa-73" value="Pediatric patient ?" style="rhombus;whiteSpace=wrap;html=1;fontFamily=Architects Daughter;fillColor=#d5e8d4;strokeColor=#82b366;strokeWidth=2;gradientDirection=north;fontStyle=0;hachureGap=4;fontSource=https%3A%2F%2Ffonts.googleapis.com%2Fcss%3Ffamily%3DArchitects%2BDaughter;rounded=0;shadow=1;fontSize=19;" vertex="1" parent="CXtcnc7tY5BcHgQPK8wa-103">
          <mxGeometry x="286.5" y="680" width="191" height="178.75" as="geometry" />
        </mxCell>
        <mxCell id="CXtcnc7tY5BcHgQPK8wa-79" value="PET Avid ?&lt;div style=&quot;font-size: 19px;&quot;&gt;or&lt;/div&gt;&lt;div style=&quot;font-size: 19px;&quot;&gt;Locally Invasive ?&lt;/div&gt;&lt;div style=&quot;font-size: 19px;&quot;&gt;or&lt;/div&gt;&lt;div style=&quot;font-size: 19px;&quot;&gt;Suspicious Lymph Nodes ?&lt;/div&gt;" style="rhombus;whiteSpace=wrap;html=1;fontFamily=Architects Daughter;fillColor=#d5e8d4;strokeColor=#82b366;strokeWidth=2;gradientDirection=north;fontStyle=0;hachureGap=4;fontSource=https%3A%2F%2Ffonts.googleapis.com%2Fcss%3Ffamily%3DArchitects%2BDaughter;rounded=0;shadow=1;fontSize=19;" vertex="1" parent="CXtcnc7tY5BcHgQPK8wa-103">
          <mxGeometry x="474.5" y="870" width="407" height="380" as="geometry" />
        </mxCell>
        <mxCell id="7" style="fontStyle=1;strokeColor=#003366;strokeWidth=1;html=1;" parent="CXtcnc7tY5BcHgQPK8wa-103" source="2" target="3" edge="1">
          <mxGeometry relative="1" as="geometry" />
        </mxCell>
        <mxCell id="CXtcnc7tY5BcHgQPK8wa-56" value="" style="edgeStyle=orthogonalEdgeStyle;rounded=0;sketch=1;hachureGap=4;jiggle=2;curveFitting=1;orthogonalLoop=1;jettySize=auto;html=1;fontFamily=Architects Daughter;fontSource=https%3A%2F%2Ffonts.googleapis.com%2Fcss%3Ffamily%3DArchitects%2BDaughter;" edge="1" parent="CXtcnc7tY5BcHgQPK8wa-103" source="3" target="CXtcnc7tY5BcHgQPK8wa-55">
          <mxGeometry relative="1" as="geometry" />
        </mxCell>
        <UserObject label="" tooltip="=&gt; Duke&#39;s Category 3 Thyroid Nodule" id="CXtcnc7tY5BcHgQPK8wa-62">
          <mxCell style="edgeStyle=orthogonalEdgeStyle;rounded=0;sketch=1;hachureGap=4;jiggle=2;curveFitting=1;orthogonalLoop=1;jettySize=auto;html=1;fontFamily=Architects Daughter;fontSource=https%3A%2F%2Ffonts.googleapis.com%2Fcss%3Ffamily%3DArchitects%2BDaughter;" edge="1" parent="CXtcnc7tY5BcHgQPK8wa-103" source="CXtcnc7tY5BcHgQPK8wa-55" target="CXtcnc7tY5BcHgQPK8wa-61">
            <mxGeometry relative="1" as="geometry" />
          </mxCell>
        </UserObject>
        <mxCell id="CXtcnc7tY5BcHgQPK8wa-68" value="YES" style="edgeLabel;html=1;align=center;verticalAlign=middle;resizable=0;points=[];sketch=1;hachureGap=4;jiggle=2;curveFitting=1;fontFamily=Architects Daughter;fontSource=https%3A%2F%2Ffonts.googleapis.com%2Fcss%3Ffamily%3DArchitects%2BDaughter;" vertex="1" connectable="0" parent="CXtcnc7tY5BcHgQPK8wa-62">
          <mxGeometry x="-0.1842" y="-1" relative="1" as="geometry">
            <mxPoint y="-14" as="offset" />
          </mxGeometry>
        </mxCell>
        <mxCell id="CXtcnc7tY5BcHgQPK8wa-93" value="AGe does not matter for large nodules." style="edgeLabel;html=1;align=center;verticalAlign=middle;resizable=0;points=[];sketch=1;hachureGap=4;jiggle=2;curveFitting=1;fontFamily=Architects Daughter;fontSource=https%3A%2F%2Ffonts.googleapis.com%2Fcss%3Ffamily%3DArchitects%2BDaughter;" vertex="1" connectable="0" parent="CXtcnc7tY5BcHgQPK8wa-62">
          <mxGeometry x="-0.4804" y="-1" relative="1" as="geometry">
            <mxPoint x="-50" y="16" as="offset" />
          </mxGeometry>
        </mxCell>
        <mxCell id="CXtcnc7tY5BcHgQPK8wa-66" value="" style="edgeStyle=orthogonalEdgeStyle;rounded=0;sketch=1;hachureGap=4;jiggle=2;curveFitting=1;orthogonalLoop=1;jettySize=auto;html=1;fontFamily=Architects Daughter;fontSource=https%3A%2F%2Ffonts.googleapis.com%2Fcss%3Ffamily%3DArchitects%2BDaughter;" edge="1" parent="CXtcnc7tY5BcHgQPK8wa-103" source="CXtcnc7tY5BcHgQPK8wa-55" target="CXtcnc7tY5BcHgQPK8wa-65">
          <mxGeometry relative="1" as="geometry" />
        </mxCell>
        <mxCell id="CXtcnc7tY5BcHgQPK8wa-67" value="NO" style="edgeLabel;html=1;align=center;verticalAlign=middle;resizable=0;points=[];sketch=1;hachureGap=4;jiggle=2;curveFitting=1;fontFamily=Architects Daughter;fontSource=https%3A%2F%2Ffonts.googleapis.com%2Fcss%3Ffamily%3DArchitects%2BDaughter;" vertex="1" connectable="0" parent="CXtcnc7tY5BcHgQPK8wa-66">
          <mxGeometry x="-0.1571" relative="1" as="geometry">
            <mxPoint x="19" as="offset" />
          </mxGeometry>
        </mxCell>
        <mxCell id="CXtcnc7tY5BcHgQPK8wa-70" value="" style="edgeStyle=orthogonalEdgeStyle;rounded=0;sketch=1;hachureGap=4;jiggle=2;curveFitting=1;orthogonalLoop=1;jettySize=auto;html=1;fontFamily=Architects Daughter;fontSource=https%3A%2F%2Ffonts.googleapis.com%2Fcss%3Ffamily%3DArchitects%2BDaughter;" edge="1" parent="CXtcnc7tY5BcHgQPK8wa-103" source="CXtcnc7tY5BcHgQPK8wa-65" target="CXtcnc7tY5BcHgQPK8wa-69">
          <mxGeometry relative="1" as="geometry" />
        </mxCell>
        <mxCell id="CXtcnc7tY5BcHgQPK8wa-71" value="YES" style="edgeLabel;html=1;align=center;verticalAlign=middle;resizable=0;points=[];sketch=1;hachureGap=4;jiggle=2;curveFitting=1;fontFamily=Architects Daughter;fontSource=https%3A%2F%2Ffonts.googleapis.com%2Fcss%3Ffamily%3DArchitects%2BDaughter;" vertex="1" connectable="0" parent="CXtcnc7tY5BcHgQPK8wa-70">
          <mxGeometry x="-0.0263" y="1" relative="1" as="geometry">
            <mxPoint y="-16" as="offset" />
          </mxGeometry>
        </mxCell>
        <mxCell id="CXtcnc7tY5BcHgQPK8wa-72" value="" style="endArrow=classic;html=1;rounded=0;sketch=1;hachureGap=4;jiggle=2;curveFitting=1;fontFamily=Architects Daughter;fontSource=https%3A%2F%2Ffonts.googleapis.com%2Fcss%3Ffamily%3DArchitects%2BDaughter;exitX=0;exitY=0.5;exitDx=0;exitDy=0;entryX=0.5;entryY=0;entryDx=0;entryDy=0;" edge="1" parent="CXtcnc7tY5BcHgQPK8wa-103" source="CXtcnc7tY5BcHgQPK8wa-69" target="CXtcnc7tY5BcHgQPK8wa-61">
          <mxGeometry width="50" height="50" relative="1" as="geometry">
            <mxPoint x="540" y="520" as="sourcePoint" />
            <mxPoint x="200" y="570" as="targetPoint" />
            <Array as="points">
              <mxPoint x="19" y="540" />
            </Array>
          </mxGeometry>
        </mxCell>
        <UserObject label="YES" tooltip="=&gt; Duke&#39;s Category 2 Solitory Thyroid Nodule" id="CXtcnc7tY5BcHgQPK8wa-76">
          <mxCell style="edgeLabel;html=1;align=center;verticalAlign=middle;resizable=0;points=[];sketch=1;hachureGap=4;jiggle=2;curveFitting=1;fontFamily=Architects Daughter;fontSource=https%3A%2F%2Ffonts.googleapis.com%2Fcss%3Ffamily%3DArchitects%2BDaughter;" vertex="1" connectable="0" parent="CXtcnc7tY5BcHgQPK8wa-72">
            <mxGeometry x="-0.1193" y="3" relative="1" as="geometry">
              <mxPoint x="-23" as="offset" />
            </mxGeometry>
          </mxCell>
        </UserObject>
        <mxCell id="CXtcnc7tY5BcHgQPK8wa-74" value="" style="edgeStyle=orthogonalEdgeStyle;rounded=0;sketch=1;hachureGap=4;jiggle=2;curveFitting=1;orthogonalLoop=1;jettySize=auto;html=1;fontFamily=Architects Daughter;fontSource=https%3A%2F%2Ffonts.googleapis.com%2Fcss%3Ffamily%3DArchitects%2BDaughter;" edge="1" parent="CXtcnc7tY5BcHgQPK8wa-103" source="CXtcnc7tY5BcHgQPK8wa-69" target="CXtcnc7tY5BcHgQPK8wa-73">
          <mxGeometry relative="1" as="geometry" />
        </mxCell>
        <mxCell id="CXtcnc7tY5BcHgQPK8wa-77" value="NO" style="edgeLabel;html=1;align=center;verticalAlign=middle;resizable=0;points=[];sketch=1;hachureGap=4;jiggle=2;curveFitting=1;fontFamily=Architects Daughter;fontSource=https%3A%2F%2Ffonts.googleapis.com%2Fcss%3Ffamily%3DArchitects%2BDaughter;" vertex="1" connectable="0" parent="CXtcnc7tY5BcHgQPK8wa-74">
          <mxGeometry x="-0.3571" relative="1" as="geometry">
            <mxPoint x="-10" as="offset" />
          </mxGeometry>
        </mxCell>
        <UserObject label="" tooltip="=&gt; Duke&#39;s Category 2 Thyroid Nodule" id="CXtcnc7tY5BcHgQPK8wa-75">
          <mxCell style="endArrow=classic;html=1;rounded=0;sketch=1;hachureGap=4;jiggle=2;curveFitting=1;fontFamily=Architects Daughter;fontSource=https%3A%2F%2Ffonts.googleapis.com%2Fcss%3Ffamily%3DArchitects%2BDaughter;exitX=0;exitY=0.5;exitDx=0;exitDy=0;entryX=1;entryY=0.5;entryDx=0;entryDy=0;" edge="1" parent="CXtcnc7tY5BcHgQPK8wa-103" source="CXtcnc7tY5BcHgQPK8wa-73" target="CXtcnc7tY5BcHgQPK8wa-61">
            <mxGeometry width="50" height="50" relative="1" as="geometry">
              <mxPoint x="380" y="655" as="sourcePoint" />
              <mxPoint x="390" y="330" as="targetPoint" />
              <Array as="points" />
            </mxGeometry>
          </mxCell>
        </UserObject>
        <mxCell id="CXtcnc7tY5BcHgQPK8wa-78" value="YES" style="edgeLabel;html=1;align=center;verticalAlign=middle;resizable=0;points=[];sketch=1;hachureGap=4;jiggle=2;curveFitting=1;fontFamily=Architects Daughter;fontSource=https%3A%2F%2Ffonts.googleapis.com%2Fcss%3Ffamily%3DArchitects%2BDaughter;" vertex="1" connectable="0" parent="CXtcnc7tY5BcHgQPK8wa-75">
          <mxGeometry x="0.0157" y="1" relative="1" as="geometry">
            <mxPoint x="16" y="5" as="offset" />
          </mxGeometry>
        </mxCell>
        <mxCell id="CXtcnc7tY5BcHgQPK8wa-80" value="" style="edgeStyle=orthogonalEdgeStyle;rounded=0;sketch=1;hachureGap=4;jiggle=2;curveFitting=1;orthogonalLoop=1;jettySize=auto;html=1;fontFamily=Architects Daughter;fontSource=https%3A%2F%2Ffonts.googleapis.com%2Fcss%3Ffamily%3DArchitects%2BDaughter;" edge="1" parent="CXtcnc7tY5BcHgQPK8wa-103" source="CXtcnc7tY5BcHgQPK8wa-65" target="CXtcnc7tY5BcHgQPK8wa-79">
          <mxGeometry relative="1" as="geometry" />
        </mxCell>
        <mxCell id="CXtcnc7tY5BcHgQPK8wa-92" value="NO" style="edgeLabel;html=1;align=center;verticalAlign=middle;resizable=0;points=[];sketch=1;hachureGap=4;jiggle=2;curveFitting=1;fontFamily=Architects Daughter;fontSource=https%3A%2F%2Ffonts.googleapis.com%2Fcss%3Ffamily%3DArchitects%2BDaughter;" vertex="1" connectable="0" parent="CXtcnc7tY5BcHgQPK8wa-80">
          <mxGeometry x="-0.2714" y="4" relative="1" as="geometry">
            <mxPoint x="15" y="1" as="offset" />
          </mxGeometry>
        </mxCell>
        <mxCell id="CXtcnc7tY5BcHgQPK8wa-84" style="edgeStyle=orthogonalEdgeStyle;rounded=0;sketch=1;hachureGap=4;jiggle=2;curveFitting=1;orthogonalLoop=1;jettySize=auto;html=1;exitX=0.5;exitY=1;exitDx=0;exitDy=0;entryX=0;entryY=0.5;entryDx=0;entryDy=0;fontFamily=Architects Daughter;fontSource=https%3A%2F%2Ffonts.googleapis.com%2Fcss%3Ffamily%3DArchitects%2BDaughter;" edge="1" parent="CXtcnc7tY5BcHgQPK8wa-103" source="CXtcnc7tY5BcHgQPK8wa-73" target="CXtcnc7tY5BcHgQPK8wa-79">
          <mxGeometry relative="1" as="geometry" />
        </mxCell>
        <mxCell id="CXtcnc7tY5BcHgQPK8wa-85" value="NO" style="edgeLabel;html=1;align=center;verticalAlign=middle;resizable=0;points=[];sketch=1;hachureGap=4;jiggle=2;curveFitting=1;fontFamily=Architects Daughter;fontSource=https%3A%2F%2Ffonts.googleapis.com%2Fcss%3Ffamily%3DArchitects%2BDaughter;" vertex="1" connectable="0" parent="CXtcnc7tY5BcHgQPK8wa-84">
          <mxGeometry x="-0.4114" y="2" relative="1" as="geometry">
            <mxPoint x="-12" y="4" as="offset" />
          </mxGeometry>
        </mxCell>
        <mxCell id="CXtcnc7tY5BcHgQPK8wa-90" style="edgeStyle=orthogonalEdgeStyle;rounded=0;sketch=1;hachureGap=4;jiggle=2;curveFitting=1;orthogonalLoop=1;jettySize=auto;html=1;fontFamily=Architects Daughter;fontSource=https%3A%2F%2Ffonts.googleapis.com%2Fcss%3Ffamily%3DArchitects%2BDaughter;exitX=0.502;exitY=0.974;exitDx=0;exitDy=0;exitPerimeter=0;" edge="1" parent="CXtcnc7tY5BcHgQPK8wa-103" source="CXtcnc7tY5BcHgQPK8wa-79" target="CXtcnc7tY5BcHgQPK8wa-61">
          <mxGeometry relative="1" as="geometry">
            <mxPoint x="651" y="901.25" as="sourcePoint" />
            <mxPoint x="130" y="720" as="targetPoint" />
          </mxGeometry>
        </mxCell>
        <UserObject label="YES" tooltip="=&gt; Duke&#39;s Category 1 Thyroid Nodule" id="CXtcnc7tY5BcHgQPK8wa-91">
          <mxCell style="edgeLabel;html=1;align=center;verticalAlign=middle;resizable=0;points=[];sketch=1;hachureGap=4;jiggle=2;curveFitting=1;fontFamily=Architects Daughter;fontSource=https%3A%2F%2Ffonts.googleapis.com%2Fcss%3Ffamily%3DArchitects%2BDaughter;" vertex="1" connectable="0" parent="CXtcnc7tY5BcHgQPK8wa-90">
            <mxGeometry x="-0.1432" y="-3" relative="1" as="geometry">
              <mxPoint x="5" y="-17" as="offset" />
            </mxGeometry>
          </mxCell>
        </UserObject>
        <mxCell id="CXtcnc7tY5BcHgQPK8wa-96" value="All nodules with malignant features need further workup irrespective of size or age." style="edgeLabel;html=1;align=center;verticalAlign=middle;resizable=0;points=[];sketch=1;hachureGap=4;jiggle=2;curveFitting=1;fontFamily=Architects Daughter;fontSource=https%3A%2F%2Ffonts.googleapis.com%2Fcss%3Ffamily%3DArchitects%2BDaughter;" vertex="1" connectable="0" parent="CXtcnc7tY5BcHgQPK8wa-90">
          <mxGeometry x="0.4026" relative="1" as="geometry">
            <mxPoint x="300" y="95" as="offset" />
          </mxGeometry>
        </mxCell>
        <mxCell id="CXtcnc7tY5BcHgQPK8wa-104" value="&lt;font style=&quot;font-size: 21px;&quot;&gt;Duke&#39;s 3 Tiered system for management of Incidentally detected Thyroid Nodule in cross-sectional imaging&lt;/font&gt;" style="text;html=1;align=center;verticalAlign=middle;resizable=0;points=[];autosize=1;strokeColor=none;fillColor=none;fontSize=21;fontColor=#0070F2;fontFamily=Architects Daughter;fontStyle=1;fontSource=https%3A%2F%2Ffonts.googleapis.com%2Fcss%3Ffamily%3DArchitects%2BDaughter;" vertex="1" parent="CXtcnc7tY5BcHgQPK8wa-107">
          <mxGeometry width="1060" height="40" as="geometry" />
        </mxCell>
        <mxCell id="CXtcnc7tY5BcHgQPK8wa-105" value="Any nodule not meetung Dukes Criterion , SHOULD NOT be mentioned in the concusion of the report." style="shape=note;strokeWidth=2;fontSize=21;size=20;whiteSpace=wrap;html=1;fillColor=#fff2cc;strokeColor=#d6b656;fontColor=#666600;sketch=1;hachureGap=4;jiggle=2;curveFitting=1;fontFamily=Architects Daughter;fontSource=https%3A%2F%2Ffonts.googleapis.com%2Fcss%3Ffamily%3DArchitects%2BDaughter;" vertex="1" parent="1">
          <mxGeometry x="-1080" y="1620" width="1060" height="80" as="geometry" />
        </mxCell>
      </root>
    </mxGraphModel>
  </diagram>
</mxfile>
